<svg width="32" height="32" viewBox="0 0 32 32" fill="none" xmlns="http://www.w3.org/2000/svg">
<g id="UI/General/Profile">
<path id="&#240;&#159;&#142;&#168;Core Black" fill-rule="evenodd" clip-rule="evenodd" d="M13.3 11.5C13.3 10.0088 14.5088 8.80001 16 8.80001C17.4911 8.80001 18.7 10.0088 18.7 11.5C18.7 12.9912 17.4911 14.2 16 14.2C14.5088 14.2 13.3 12.9912 13.3 11.5ZM16 7.20001C13.6251 7.20001 11.7 9.12519 11.7 11.5C11.7 13.8748 13.6251 15.8 16 15.8C18.3748 15.8 20.3 13.8748 20.3 11.5C20.3 9.12519 18.3748 7.20001 16 7.20001ZM12.4869 17.8695C12.8511 17.6193 12.9435 17.1213 12.6934 16.7571C12.4433 16.3929 11.9452 16.3004 11.581 16.5506C10.5377 17.2671 9.68465 18.2296 9.0956 19.3538C8.50663 20.4777 8.19929 21.7295 8.19995 23H8.99995L8.19995 23.0005V24C8.19995 24.4418 8.55813 24.8 8.99995 24.8H23C23.4418 24.8 23.8 24.4418 23.8 24V23.0005V23H23L23.8 23.0005C23.8007 21.7298 23.4933 20.4779 22.9043 19.3538C22.3153 18.2296 21.4622 17.2671 20.4189 16.5506C20.0547 16.3004 19.5566 16.3929 19.3065 16.7571C19.0564 17.1213 19.1488 17.6193 19.513 17.8695C20.3406 18.4378 21.0185 19.2022 21.4871 20.0964C21.9557 20.9907 22.2005 21.9873 22.2 22.9995V23V23.2H9.79995V23L9.79995 22.9995C9.79936 21.9873 10.0442 20.9907 10.5128 20.0964C10.9814 19.2022 11.6593 18.4378 12.4869 17.8695Z" fill="#191817"/>
</g>
</svg>
